<svg width="382" height="433" viewBox="0 0 382 433" fill="none" xmlns="http://www.w3.org/2000/svg">
<g clip-path="url(#clip0_17_7166)">
<path d="M245.59 320.58C246.447 321.038 247.425 321.221 248.39 321.105C249.355 320.989 250.261 320.58 250.985 319.933C251.71 319.285 252.217 318.431 252.439 317.486C252.662 316.541 252.587 315.55 252.227 314.649C252.324 314.169 252.393 313.824 252.49 313.345C254.344 311.616 256.674 310.479 259.179 310.081C261.685 309.683 264.252 310.041 266.552 311.11C268.853 312.179 270.781 313.909 272.09 316.079C273.399 318.25 274.03 320.761 273.901 323.292C273.314 337.563 274.02 352.963 264.522 364.468C307.869 329.091 327.634 268.824 314.396 214.619C307.901 205.579 304.871 193.57 307.784 182.688C311.439 186.238 318.564 185.284 317.476 179.138C316.891 176.708 316.287 174.286 315.703 171.857C340.669 162.127 347.188 199.204 317.614 214.299C320.013 224.605 321.327 235.132 321.534 245.71C324.873 236.172 330.431 227.562 337.751 220.587C344.839 214.214 354.211 210.466 362.93 206.19C373.539 200.973 385.314 211.316 381.137 222.357C374.074 221.455 369.077 229.886 375.486 234.417C364.229 253.298 342.645 265.299 320.716 265.489C318.498 287.034 311.708 307.859 300.798 326.576C314.807 305.301 341.918 311.426 363.344 310.52C364.766 310.341 366.209 310.579 367.497 311.205C368.785 311.831 369.864 312.818 370.6 314.046C371.336 315.273 371.699 316.688 371.644 318.118C371.588 319.548 371.118 320.931 370.289 322.099C367.47 321.933 364.642 322.048 361.847 322.441C360.532 322.636 359.309 323.232 358.346 324.148C357.384 325.064 356.728 326.254 356.47 327.557C356.212 328.859 356.363 330.21 356.903 331.423C357.443 332.636 358.346 333.653 359.487 334.333C340.692 351.542 311.569 355.241 288.711 344.26C281.953 352.762 274.329 360.54 265.961 367.467L231.979 351.289C232.037 350.854 232.113 350.412 232.183 349.983C235.234 351.678 238.482 352.993 241.853 353.9C238.228 340.097 234.188 332.013 245.589 320.58H245.59Z" fill="#F2F2F2"/>
<path d="M185.543 287.928C184.922 288.675 184.086 289.213 183.148 289.469C182.21 289.725 181.217 289.688 180.301 289.361C179.386 289.034 178.593 288.435 178.031 287.643C177.468 286.851 177.162 285.906 177.156 284.935C176.885 284.527 176.691 284.234 176.42 283.826C174.049 282.924 171.463 282.749 168.992 283.324C166.521 283.899 164.279 285.198 162.552 287.055C160.825 288.911 159.693 291.24 159.3 293.743C158.907 296.247 159.272 298.81 160.347 301.105C166.281 314.101 171.443 328.629 184.585 335.707C131.078 319.273 90.0123 270.904 81.8003 215.716C84.4019 204.897 82.6726 192.633 75.8649 183.652C73.8206 188.317 66.8611 190.119 65.548 184.016C65.1716 181.546 64.8168 179.075 64.4402 176.605C37.6431 176.999 45.6091 213.793 78.6998 216.632C80.3699 227.08 83.129 237.325 86.9321 247.2C80.2378 239.624 71.8382 233.743 62.4244 230.042C53.4532 226.81 43.3581 226.869 33.6683 226.194C21.8723 225.359 14.8737 239.374 22.9124 248.026C29.1124 244.529 36.9249 250.455 32.7005 257.065C50.2565 270.311 74.7784 273.294 95.1602 265.209C105.351 284.327 119.504 301.055 136.677 314.28C115.668 299.854 92.8726 315.74 72.6873 322.973C71.3032 323.342 70.0567 324.107 69.1 325.172C68.1432 326.237 67.5175 327.557 67.2992 328.972C67.0809 330.386 67.2795 331.833 67.8706 333.137C68.4618 334.44 69.42 335.544 70.6284 336.313C73.1764 335.098 75.8389 334.139 78.5767 333.45C79.8681 333.134 81.2255 333.226 82.4628 333.711C83.7001 334.197 84.7568 335.053 85.488 336.162C86.2192 337.27 86.5891 338.578 86.547 339.905C86.505 341.232 86.053 342.514 85.253 343.574C109.159 352.431 137.528 344.885 154.55 326.104C164.02 331.432 174.018 335.762 184.384 339.026L209.746 311.24C209.528 310.859 209.291 310.479 209.064 310.108C206.878 312.827 204.367 315.269 201.587 317.379C199.732 303.23 200.42 294.22 185.544 287.928L185.543 287.928Z" fill="#F2F2F2"/>
<path d="M192.069 170.519C193.036 170.422 193.95 170.029 194.686 169.396C195.423 168.762 195.947 167.918 196.187 166.977C196.426 166.036 196.371 165.044 196.028 164.136C195.685 163.228 195.07 162.447 194.268 161.899C194.08 161.447 193.945 161.122 193.758 160.67C194.332 158.202 195.631 155.962 197.489 154.236C199.347 152.51 201.678 151.378 204.184 150.984C206.69 150.59 209.257 150.953 211.556 152.026C213.854 153.099 215.779 154.832 217.085 157.005C224.565 169.179 233.747 181.57 232.286 196.41C248.521 142.903 231.284 81.8672 190.036 44.2409C179.597 40.3536 170.378 32.0717 166.721 21.4156C171.737 22.3277 177.12 17.5679 172.785 13.0716C170.944 11.3803 169.09 9.70635 167.249 8.01491C182.543 -13.9653 208.652 13.1837 192.528 42.1838C200.273 49.4027 207.241 57.4105 213.318 66.0765C210.765 56.2992 210.572 46.0562 212.756 36.19C215.082 26.9522 220.769 18.6222 225.62 10.2173C231.515 -0.0215574 247.064 2.00772 249.76 13.4999C243.393 16.6835 243.951 26.4654 251.801 26.6577C252.997 48.6002 241.778 70.5818 223.68 82.9517C233.866 102.072 239.855 123.14 241.247 144.754C241 119.291 266.925 109.279 284.206 96.5952C285.286 95.655 286.617 95.0491 288.036 94.8514C289.455 94.6537 290.901 94.8727 292.197 95.4818C293.494 96.0909 294.585 97.0637 295.337 98.2814C296.09 99.4993 296.471 100.909 296.435 102.34C294.003 103.772 291.719 105.443 289.618 107.326C288.635 108.22 287.953 109.395 287.665 110.692C287.377 111.988 287.498 113.341 288.01 114.566C288.523 115.791 289.402 116.828 290.528 117.534C291.653 118.241 292.97 118.582 294.298 118.512C288.302 143.263 266.19 162.552 241.085 166.165C240.221 176.986 238.234 187.688 235.154 198.098L197.913 203.591C197.718 203.198 197.535 202.789 197.353 202.393C200.833 202.101 204.263 201.385 207.568 200.26C196.853 190.82 188.986 186.359 192.068 170.52L192.069 170.519Z" fill="#F2F2F2"/>
<path d="M229.526 158.592C212.571 158.592 203.375 156.523 200.163 152.106C197.329 148.209 199.229 143.066 201.429 137.112C203.01 132.833 204.802 127.982 204.802 123.182C204.802 99.8327 216.656 87.9935 240.034 87.9935C251.666 87.9935 264.155 94.1647 273.443 104.502C281.886 113.899 286.093 125.146 284.983 135.359C284.073 143.735 280.17 149.243 272.699 152.694L272.262 152.896L272.138 152.431C271.493 150.027 270.401 147.766 268.919 145.765C268.775 148.906 267.982 151.983 266.59 154.804L266.511 154.964L266.339 155.014C257.883 157.419 247.848 158.071 240.05 158.369C236.254 158.517 232.747 158.591 229.526 158.592Z" fill="#2F2E41"/>
<path d="M234.148 191.125C233.498 189.217 232.402 187.492 230.951 186.092C229.499 184.692 227.735 183.657 225.803 183.075C223.871 182.492 221.829 182.378 219.844 182.742C217.86 183.106 215.99 183.937 214.392 185.167L158.623 218.468L141.172 175.941C142.646 173.781 143.397 171.21 143.318 168.597C143.239 165.984 142.333 163.464 140.731 161.397C139.129 159.329 136.912 157.822 134.4 157.091C131.887 156.36 129.206 156.442 126.743 157.327C124.28 158.211 122.161 159.852 120.689 162.013C119.217 164.175 118.469 166.747 118.551 169.359C118.633 171.972 119.542 174.492 121.146 176.557C122.751 178.622 124.969 180.127 127.483 180.855C128.558 193.119 134.536 247.932 155.331 245.94C172.81 244.265 216.218 215.392 229.7 205.381C231.857 203.781 233.45 201.539 234.249 198.977C235.049 196.415 235.013 193.666 234.148 191.125Z" fill="#FFB6B6"/>
<path d="M276.172 432.999H227.633L219.493 392.803L216.853 432.999H171.764C171.781 401.433 173.427 369.889 176.696 338.492L177.255 336.591L178.138 333.55L178.697 331.64L188.027 299.639L188.764 297.099H244.949C248.182 300.133 251.165 303.422 253.867 306.936C254.782 308.101 255.737 309.363 256.717 310.722C257.398 311.684 258.102 312.696 258.807 313.755C265.068 323.064 269.747 333.34 272.657 344.171V344.179C273.151 346.031 273.588 347.927 273.969 349.866V349.874C274.309 351.597 274.609 353.344 274.844 355.132C275.022 356.434 275.176 357.753 275.289 359.087C275.964 366.482 275.728 373.931 274.585 381.268L276.172 432.999Z" fill="#2F2E41"/>
<path d="M18.8188 65.4571C21.971 64.2384 23.8383 61.4749 22.9894 59.2848C22.1406 57.0946 18.897 56.3072 15.7448 57.5259C12.5925 58.7446 10.7252 61.508 11.5741 63.6982C12.423 65.8883 15.6665 66.6758 18.8188 65.4571Z" fill="#E6E6E6"/>
<path d="M58.5082 60.3747C61.6605 59.156 63.5278 56.3925 62.6789 54.2024C61.83 52.0123 58.5865 51.2248 55.4342 52.4435C52.282 53.6622 50.4147 56.4256 51.2636 58.6158C52.1124 60.8059 55.3559 61.5934 58.5082 60.3747Z" fill="#3F3D56"/>
<path d="M15.3754 99.2792C18.5277 98.0604 20.395 95.297 19.5461 93.1069C18.6972 90.9167 15.4537 90.1292 12.3014 91.3479C9.14917 92.5667 7.28189 95.3301 8.13075 97.5202C8.97961 99.7104 12.2232 100.498 15.3754 99.2792Z" fill="#FF6584"/>
<path d="M3.89448 114.196C5.34064 113.854 6.11411 111.894 5.62207 109.817C5.13002 107.741 3.55878 106.335 2.11263 106.677C0.666476 107.019 -0.106977 108.979 0.385069 111.055C0.877114 113.132 2.44833 114.538 3.89448 114.196Z" fill="#E6E6E6"/>
<path d="M3.65816 139.452C5.10431 139.11 5.87776 137.15 5.38572 135.073C4.89367 132.997 3.32245 131.591 1.8763 131.933C0.430148 132.275 -0.343305 134.235 0.14874 136.311C0.640785 138.388 2.212 139.794 3.65816 139.452Z" fill="#3F3D56"/>
<path d="M38.4921 87.1398C39.9383 86.798 40.7117 84.8377 40.2197 82.7614C39.7276 80.6852 38.1564 79.2792 36.7103 79.621C35.2641 79.9629 34.4907 81.9232 34.9827 83.9994C35.4748 86.0757 37.046 87.4817 38.4921 87.1398Z" fill="#E6E6E6"/>
<path d="M17.5878 82.0708C19.034 81.7289 19.8074 79.7686 19.3154 77.6924C18.8234 75.6161 17.2521 74.2101 15.806 74.552C14.3598 74.8938 13.5864 76.8541 14.0784 78.9304C14.5705 81.0066 16.1417 82.4126 17.5878 82.0708Z" fill="#FF6584"/>
<path d="M39.7441 58.8148C41.1902 58.4729 41.9637 56.5126 41.4717 54.4364C40.9796 52.3601 39.4084 50.9541 37.9622 51.296C36.5161 51.6378 35.7426 53.5981 36.2347 55.6744C36.7267 57.7506 38.2979 59.1566 39.7441 58.8148Z" fill="#3F3D56"/>
<path d="M50.0477 233.619C51.5719 231.83 50.7208 228.607 48.1469 226.418C45.5729 224.23 42.2507 223.906 40.7265 225.694C39.2024 227.483 40.0534 230.706 42.6274 232.895C45.2014 235.083 48.5235 235.407 50.0477 233.619Z" fill="#E6E6E6"/>
<path d="M26.6747 201.183C28.1988 199.395 27.3478 196.171 24.7738 193.983C22.1998 191.794 18.8776 191.47 17.3535 193.259C15.8293 195.047 16.6804 198.271 19.2543 200.459C21.8283 202.647 25.1505 202.971 26.6747 201.183Z" fill="#3F3D56"/>
<path d="M81.4657 220.541C82.9898 218.752 82.1388 215.529 79.5648 213.34C76.9909 211.152 73.6687 210.828 72.1445 212.616C70.6203 214.405 71.4714 217.628 74.0454 219.817C76.6193 222.005 79.9415 222.329 81.4657 220.541Z" fill="#FF6584"/>
<path d="M97.0709 220.898C98.6647 219.478 99.1545 217.428 98.1649 216.321C97.1754 215.213 95.0811 215.468 93.4874 216.888C91.8936 218.309 91.4038 220.358 92.3934 221.466C93.3829 222.573 95.4772 222.319 97.0709 220.898Z" fill="#E6E6E6"/>
<path d="M119.422 209.081C121.016 207.66 121.506 205.611 120.517 204.503C119.527 203.396 117.433 203.65 115.839 205.071C114.245 206.492 113.755 208.541 114.745 209.648C115.734 210.756 117.829 210.502 119.422 209.081Z" fill="#3F3D56"/>
<path d="M56.776 203.394C58.3698 201.973 58.8596 199.924 57.87 198.816C56.8805 197.709 54.7862 197.963 53.1924 199.384C51.5987 200.804 51.1089 202.854 52.0984 203.961C53.088 205.069 55.1822 204.814 56.776 203.394Z" fill="#E6E6E6"/>
<path d="M62.2663 224.167C63.86 222.746 64.3498 220.696 63.3602 219.589C62.3707 218.482 60.2765 218.736 58.6827 220.157C57.0889 221.577 56.5991 223.627 57.5887 224.734C58.5782 225.841 60.6725 225.587 62.2663 224.167Z" fill="#FF6584"/>
<path d="M31.2389 215.783C32.8327 214.362 33.3225 212.313 32.3329 211.205C31.3433 210.098 29.2491 210.352 27.6553 211.773C26.0616 213.194 25.5717 215.243 26.5613 216.35C27.5509 217.458 29.6451 217.204 31.2389 215.783Z" fill="#3F3D56"/>
<path d="M207.084 25.5805C209.194 24.544 209.695 21.248 208.204 18.2185C206.712 15.1891 203.792 13.5734 201.682 14.6099C199.572 15.6463 199.071 18.9424 200.562 21.9718C202.054 25.0012 204.974 26.6169 207.084 25.5805Z" fill="#E6E6E6"/>
<path d="M215.633 64.622C217.743 63.5855 218.244 60.2895 216.752 57.26C215.261 54.2306 212.341 52.6149 210.231 53.6514C208.121 54.6878 207.619 57.9839 209.111 61.0133C210.603 64.0427 213.523 65.6584 215.633 64.622Z" fill="#3F3D56"/>
<path d="M173.051 25.1194C175.161 24.083 175.662 20.7869 174.17 17.7575C172.679 14.728 169.759 13.1124 167.649 14.1488C165.539 15.1852 165.037 18.4813 166.529 21.5108C168.021 24.5402 170.941 26.1558 173.051 25.1194Z" fill="#FF6584"/>
<path d="M155.162 12.7286C157.19 12.0571 158.454 10.3707 157.987 8.96185C157.519 7.55301 155.496 6.95522 153.468 7.62668C151.441 8.29814 150.176 9.98457 150.644 11.3934C151.111 12.8023 153.134 13.4 155.162 12.7286Z" fill="#E6E6E6"/>
<path d="M129.951 14.7087C131.979 14.0372 133.243 12.3508 132.776 10.9419C132.308 9.5331 130.285 8.93534 128.257 9.6068C126.23 10.2783 124.965 11.9647 125.433 13.3735C125.9 14.7823 127.923 15.3801 129.951 14.7087Z" fill="#3F3D56"/>
<path d="M185.18 44.7806C187.207 44.1091 188.472 42.4227 188.004 41.0138C187.537 39.605 185.514 39.0072 183.486 39.6787C181.458 40.3501 180.194 42.0366 180.661 43.4454C181.129 44.8543 183.152 45.452 185.18 44.7806Z" fill="#E6E6E6"/>
<path d="M188.404 23.5401C190.432 22.8686 191.697 21.1822 191.229 19.7733C190.761 18.3645 188.738 17.7667 186.711 18.4382C184.683 19.1097 183.418 20.7961 183.886 22.2049C184.354 23.6138 186.377 24.2115 188.404 23.5401Z" fill="#FF6584"/>
<path d="M213.543 43.5456C215.571 42.8742 216.835 41.1877 216.368 39.7789C215.9 38.3701 213.877 37.7723 211.849 38.4438C209.822 39.1152 208.557 40.8016 209.025 42.2105C209.492 43.6193 211.515 44.2171 213.543 43.5456Z" fill="#3F3D56"/>
<path d="M221.325 165.093L248.066 163.717L260.486 183.319C260.486 183.319 283.856 187.221 282.236 214.724C280.616 242.227 253.802 266.362 253.802 266.362L254.948 280.684L252.958 286.365L253.213 289.555L255.929 292.933L256.208 296.427L253.802 301.954L257.074 307.247L188.283 300.591L185.768 291.438L189.438 286.524L187.388 280.114L190.469 273.948L192.076 254.363C192.076 254.363 174.497 227.986 194.677 208.119L202.777 194.368L211.839 183.325L221.325 165.093Z" fill="#063E50"/>
<path d="M234.62 159.558C250.269 159.558 262.955 146.888 262.955 131.258C262.955 115.629 250.269 102.959 234.62 102.959C218.971 102.959 206.285 115.629 206.285 131.258C206.285 146.888 218.971 159.558 234.62 159.558Z" fill="#FFB6B6"/>
<path d="M230.825 129.544C228.383 129.544 225.943 129.475 223.504 129.338L223.068 129.313L223.126 128.881C223.485 126.18 223.283 123.434 222.532 120.814C221.256 123.797 219.358 126.474 216.965 128.666L216.83 128.79L216.648 128.77C210.024 128.047 203.46 126.851 197.006 125.192L196.759 125.129L196.71 124.88C196.228 122.516 195.978 120.11 195.965 117.698C195.965 110.162 198.7 103.82 203.668 99.8385C209.074 95.5052 216.825 94.1725 225.499 96.0838H253.235C256.284 96.0873 259.208 97.2986 261.364 99.452C263.52 101.606 264.733 104.525 264.736 107.571V125.113L264.434 125.192C253.463 128.072 242.168 129.534 230.825 129.544Z" fill="#2F2E41"/>
<path d="M37.4845 98.0647C36.2428 98.5183 35.2321 99.4452 34.6738 100.642C34.1156 101.839 34.0556 103.208 34.5069 104.449L64.4285 186.449C64.8825 187.689 65.8106 188.699 67.009 189.256C68.2075 189.814 69.5784 189.874 70.8211 189.423L186.952 147.153C188.193 146.699 189.204 145.772 189.762 144.575C190.321 143.378 190.381 142.009 189.929 140.768L160.008 58.7684C159.554 57.5283 158.626 56.5187 157.427 55.9612C156.229 55.4036 154.858 55.3436 153.615 55.7943L37.4845 98.0647Z" fill="#CCCCCC"/>
<path d="M143.73 158.366L72.6463 184.24C71.3088 184.725 69.8333 184.66 68.5435 184.06C67.2536 183.46 66.2548 182.374 65.7661 181.039L38.6275 106.666C38.1417 105.33 38.2063 103.856 38.8071 102.568C39.4079 101.28 40.4958 100.282 41.8322 99.7941L151.401 59.9123C152.738 59.4272 154.214 59.4917 155.503 60.0918C156.793 60.6919 157.792 61.7785 158.281 63.1132L171.394 99.0495C175.587 110.58 175.029 123.301 169.843 134.421C164.656 145.541 155.266 154.152 143.73 158.366Z" fill="white"/>
<path d="M92.5815 104.635L75.6895 110.784C75.4777 110.861 75.2527 110.895 75.0275 110.886C74.8022 110.876 74.5811 110.822 74.3767 110.727C74.1723 110.632 73.9887 110.497 73.8363 110.331C73.6839 110.166 73.5658 109.971 73.4885 109.76C73.4113 109.548 73.3766 109.323 73.3864 109.098C73.3961 108.873 73.4501 108.653 73.5453 108.448C73.6405 108.244 73.7751 108.061 73.9412 107.909C74.1074 107.757 74.3019 107.638 74.5138 107.561L91.4057 101.413C91.8335 101.257 92.3058 101.278 92.7185 101.47C93.1313 101.662 93.4508 102.01 93.6067 102.437C93.7626 102.864 93.7422 103.336 93.5499 103.748C93.3577 104.16 93.0093 104.479 92.5815 104.635Z" fill="#063E50"/>
<path d="M132.852 97.4421L78.0939 117.374C77.882 117.451 77.6569 117.486 77.4314 117.476C77.206 117.467 76.9846 117.413 76.78 117.318C76.5754 117.223 76.3916 117.089 76.239 116.923C76.0864 116.757 75.9682 116.562 75.8909 116.35C75.8136 116.139 75.7789 115.914 75.7887 115.689C75.7986 115.463 75.8527 115.242 75.9481 115.038C76.0435 114.834 76.1783 114.651 76.3447 114.498C76.5112 114.346 76.706 114.228 76.9181 114.151L131.676 94.2199C131.888 94.1428 132.113 94.1081 132.338 94.1179C132.564 94.1276 132.785 94.1815 132.989 94.2766C133.193 94.3717 133.377 94.5061 133.529 94.672C133.682 94.838 133.8 95.0323 133.877 95.2439C133.954 95.4554 133.989 95.6801 133.979 95.9051C133.97 96.1301 133.916 96.3509 133.82 96.5551C133.725 96.7592 133.591 96.9426 133.425 97.0948C133.258 97.247 133.064 97.365 132.852 97.4421Z" fill="#063E50"/>
<path d="M135.612 105.007L80.8536 124.938C80.6418 125.015 80.4168 125.05 80.1916 125.04C79.9663 125.031 79.7452 124.977 79.5408 124.882C79.3364 124.787 79.1528 124.652 79.0004 124.486C78.848 124.32 78.7298 124.126 78.6526 123.914C78.5754 123.703 78.5407 123.478 78.5504 123.253C78.5602 123.028 78.6142 122.807 78.7094 122.603C78.8046 122.399 78.9391 122.216 79.1053 122.063C79.2714 121.911 79.466 121.793 79.6778 121.716L134.436 101.785C134.864 101.63 135.335 101.65 135.748 101.843C136.16 102.035 136.479 102.382 136.635 102.809C136.791 103.236 136.771 103.708 136.579 104.12C136.387 104.532 136.039 104.851 135.612 105.007Z" fill="#063E50"/>
<path d="M138.372 112.571L83.6134 132.502C83.4015 132.58 83.1764 132.615 82.9509 132.605C82.7255 132.596 82.5042 132.542 82.2995 132.447C82.0949 132.352 81.9111 132.217 81.7585 132.051C81.606 131.885 81.4877 131.691 81.4104 131.479C81.3332 131.267 81.2984 131.043 81.3083 130.817C81.3181 130.592 81.3722 130.371 81.4676 130.167C81.563 129.963 81.6978 129.779 81.8643 129.627C82.0307 129.475 82.2255 129.357 82.4376 129.28L137.196 109.349C137.408 109.272 137.633 109.237 137.858 109.247C138.083 109.256 138.304 109.31 138.509 109.405C138.713 109.5 138.897 109.635 139.049 109.801C139.201 109.967 139.32 110.161 139.397 110.373C139.474 110.584 139.509 110.809 139.499 111.034C139.489 111.259 139.435 111.48 139.34 111.684C139.245 111.888 139.11 112.071 138.944 112.224C138.778 112.376 138.583 112.494 138.372 112.571Z" fill="#063E50"/>
<path d="M141.131 120.134L86.3732 140.066C85.9453 140.221 85.4731 140.201 85.0603 140.009C84.6475 139.817 84.3281 139.469 84.1721 139.042C84.0162 138.614 84.0367 138.143 84.2289 137.731C84.4212 137.318 84.7695 136.999 85.1974 136.844L139.956 116.912C140.167 116.835 140.392 116.8 140.618 116.81C140.843 116.82 141.064 116.874 141.268 116.969C141.473 117.064 141.656 117.198 141.809 117.364C141.961 117.53 142.079 117.724 142.157 117.936C142.234 118.148 142.268 118.372 142.259 118.597C142.249 118.822 142.195 119.043 142.1 119.247C142.005 119.451 141.87 119.635 141.704 119.787C141.538 119.939 141.343 120.057 141.131 120.134Z" fill="#063E50"/>
<path d="M314.88 141.142L284.9 212.797C283.62 215.829 281.199 218.237 278.158 219.502C275.116 220.766 271.699 220.786 268.644 219.556C267.063 218.92 265.628 217.969 264.428 216.761C263.227 215.554 262.285 214.114 261.659 212.531C261.034 210.948 260.738 209.254 260.789 207.552C260.84 205.851 261.238 204.178 261.958 202.635L295.385 129.157L313.812 83.6543C312.22 82.0682 311.155 80.0309 310.762 77.8193C310.369 75.6076 310.668 73.3289 311.617 71.2926C312.566 69.2564 314.12 67.5613 316.067 66.4377C318.015 65.3142 320.261 64.8166 322.502 65.0125C324.742 65.2085 326.868 66.0886 328.59 67.5331C330.312 68.9776 331.547 70.9166 332.127 73.0867C332.708 75.2568 332.605 77.5526 331.833 79.6624C331.062 81.7722 329.659 83.5936 327.814 84.8791L314.88 141.142Z" fill="#FFB6B6"/>
</g>
<defs>
<clipPath id="clip0_17_7166">
<rect width="382" height="433" fill="white"/>
</clipPath>
</defs>
</svg>
