<svg width="71" height="70" viewBox="0 0 71 70" fill="none" xmlns="http://www.w3.org/2000/svg">
<circle cx="35.5" cy="35" r="35" fill="#8416DB" fill-opacity="0.06"/>
<path d="M29.6875 33.8854C29.6875 33.6285 29.7896 33.3821 29.9712 33.2004C30.1529 33.0187 30.3993 32.9167 30.6563 32.9167C30.9132 32.9167 31.1596 33.0187 31.3413 33.2004C31.5229 33.3821 31.625 33.6285 31.625 33.8854C31.625 34.1423 31.5229 34.3888 31.3413 34.5704C31.1596 34.7521 30.9132 34.8542 30.6563 34.8542C30.3993 34.8542 30.1529 34.7521 29.9712 34.5704C29.7896 34.3888 29.6875 34.1423 29.6875 33.8854ZM30.6563 40.0208C30.3993 40.0208 30.1529 40.1229 29.9712 40.3046C29.7896 40.4863 29.6875 40.7327 29.6875 40.9896C29.6875 41.2465 29.7896 41.4929 29.9712 41.6746C30.1529 41.8563 30.3993 41.9583 30.6563 41.9583C30.9132 41.9583 31.1596 41.8563 31.3413 41.6746C31.5229 41.4929 31.625 41.2465 31.625 40.9896C31.625 40.7327 31.5229 40.4863 31.3413 40.3046C31.1596 40.1229 30.9132 40.0208 30.6563 40.0208ZM23.875 28.0729C23.875 26.9596 24.3173 25.8918 25.1045 25.1045C25.8918 24.3173 26.9596 23.875 28.0729 23.875H42.9271C44.0404 23.875 45.1082 24.3173 45.8955 25.1045C46.6827 25.8918 47.125 26.9596 47.125 28.0729V35.5284C45.943 34.7705 44.5889 34.3231 43.188 34.2277C43.2434 34.0811 43.2624 33.9231 43.2433 33.7675C43.2242 33.6119 43.1677 33.4633 43.0785 33.3344C42.9893 33.2054 42.8702 33.1001 42.7313 33.0273C42.5925 32.9546 42.438 32.9166 42.2813 32.9167H36.4688C36.2118 32.9167 35.9654 33.0187 35.7837 33.2004C35.6021 33.3821 35.5 33.6285 35.5 33.8854C35.5 34.1423 35.6021 34.3888 35.7837 34.5704C35.9654 34.7521 36.2118 34.8542 36.4688 34.8542H39.3698C38.2393 35.3263 37.2257 36.04 36.4002 36.9454C35.5747 37.8507 34.9573 38.9257 34.5913 40.0949C34.2252 41.2641 34.1195 42.4993 34.2813 43.7137C34.4432 44.9282 34.8689 46.0925 35.5284 47.125H28.0729C26.9596 47.125 25.8918 46.6827 25.1045 45.8955C24.3173 45.1082 23.875 44.0404 23.875 42.9271V28.0729ZM27.75 33.8854C27.75 34.2671 27.8252 34.645 27.9712 34.9976C28.1173 35.3502 28.3314 35.6706 28.6012 35.9404C28.8711 36.2103 29.1915 36.4244 29.5441 36.5704C29.8967 36.7165 30.2746 36.7917 30.6563 36.7917C31.0379 36.7917 31.4158 36.7165 31.7684 36.5704C32.121 36.4244 32.4414 36.2103 32.7113 35.9404C32.9811 35.6706 33.1952 35.3502 33.3413 34.9976C33.4873 34.645 33.5625 34.2671 33.5625 33.8854C33.5625 33.1146 33.2563 32.3754 32.7113 31.8304C32.1663 31.2854 31.427 30.9792 30.6563 30.9792C29.8855 30.9792 29.1462 31.2854 28.6012 31.8304C28.0562 32.3754 27.75 33.1146 27.75 33.8854ZM30.6563 38.0833C29.8855 38.0833 29.1462 38.3895 28.6012 38.9346C28.0562 39.4796 27.75 40.2188 27.75 40.9896C27.75 41.7604 28.0562 42.4996 28.6012 43.0446C29.1462 43.5896 29.8855 43.8958 30.6563 43.8958C31.427 43.8958 32.1663 43.5896 32.7113 43.0446C33.2563 42.4996 33.5625 41.7604 33.5625 40.9896C33.5625 40.2188 33.2563 39.4796 32.7113 38.9346C32.1663 38.3895 31.427 38.0833 30.6563 38.0833ZM27.75 28.0729C27.75 28.6077 28.184 29.0417 28.7188 29.0417H42.2813C42.5382 29.0417 42.7846 28.9396 42.9663 28.7579C43.1479 28.5763 43.25 28.3298 43.25 28.0729C43.25 27.816 43.1479 27.5696 42.9663 27.3879C42.7846 27.2062 42.5382 27.1042 42.2813 27.1042H28.7188C28.4618 27.1042 28.2154 27.2062 28.0337 27.3879C27.8521 27.5696 27.75 27.816 27.75 28.0729ZM49.7083 42.6042C49.7083 40.72 48.9599 38.9131 47.6276 37.5808C46.2953 36.2485 44.4883 35.5 42.6042 35.5C40.72 35.5 38.9131 36.2485 37.5808 37.5808C36.2485 38.9131 35.5 40.72 35.5 42.6042C35.5 44.4883 36.2485 46.2953 37.5808 47.6276C38.9131 48.9599 40.72 49.7083 42.6042 49.7083C44.4883 49.7083 46.2953 48.9599 47.6276 47.6276C48.9599 46.2953 49.7083 44.4883 49.7083 42.6042ZM43.25 43.25L43.2513 46.483C43.2513 46.6543 43.1833 46.8186 43.0621 46.9397C42.941 47.0608 42.7767 47.1289 42.6055 47.1289C42.4342 47.1289 42.2699 47.0608 42.1488 46.9397C42.0277 46.8186 41.9596 46.6543 41.9596 46.483V43.25H38.724C38.5527 43.25 38.3884 43.182 38.2673 43.0608C38.1462 42.9397 38.0782 42.7755 38.0782 42.6042C38.0782 42.4329 38.1462 42.2686 38.2673 42.1475C38.3884 42.0264 38.5527 41.9583 38.724 41.9583H41.9583V38.7292C41.9583 38.5579 42.0264 38.3936 42.1475 38.2725C42.2686 38.1514 42.4329 38.0833 42.6042 38.0833C42.7755 38.0833 42.9397 38.1514 43.0608 38.2725C43.182 38.3936 43.25 38.5579 43.25 38.7292V41.9583H46.4753C46.6466 41.9583 46.8108 42.0264 46.932 42.1475C47.0531 42.2686 47.1211 42.4329 47.1211 42.6042C47.1211 42.7755 47.0531 42.9397 46.932 43.0608C46.8108 43.182 46.6466 43.25 46.4753 43.25H43.25Z" fill="#8416DB"/>
</svg>
