<svg width="71" height="70" viewBox="0 0 71 70" fill="none" xmlns="http://www.w3.org/2000/svg">
<circle cx="35.5" cy="35" r="35" fill="#F47A7A" fill-opacity="0.08"/>
<path d="M47.1246 27.75C47.3302 27.75 47.5273 27.8317 47.6726 27.977C47.818 28.1223 47.8996 28.3195 47.8996 28.525C47.8996 28.7305 47.818 28.9277 47.6726 29.073C47.5273 29.2183 47.3302 29.3 47.1246 29.3H23.8746C23.6691 29.3 23.4719 29.2183 23.3266 29.073C23.1813 28.9277 23.0996 28.7305 23.0996 28.525C23.0996 28.3195 23.1813 28.1223 23.3266 27.977C23.4719 27.8317 23.6691 27.75 23.8746 27.75H47.1246ZM47.1246 32.4C47.3302 32.4 47.5273 32.4817 47.6726 32.627C47.818 32.7723 47.8996 32.9695 47.8996 33.175C47.8996 33.3805 47.818 33.5777 47.6726 33.723C47.5273 33.8683 47.3302 33.95 47.1246 33.95H23.8746C23.6691 33.95 23.4719 33.8683 23.3266 33.723C23.1813 33.5777 23.0996 33.3805 23.0996 33.175C23.0996 32.9695 23.1813 32.7723 23.3266 32.627C23.4719 32.4817 23.6691 32.4 23.8746 32.4H47.1246ZM35.898 37.05C35.5032 37.5281 35.1617 38.0478 34.8796 38.6H23.8746C23.6691 38.6 23.4719 38.5183 23.3266 38.373C23.1813 38.2277 23.0996 38.0305 23.0996 37.825C23.0996 37.6195 23.1813 37.4223 23.3266 37.277C23.4719 37.1317 23.6691 37.05 23.8746 37.05H35.898ZM33.9496 42.475C33.9496 42.7354 33.961 42.9937 33.9837 43.25H23.8746C23.6691 43.25 23.4719 43.1684 23.3266 43.023C23.1813 42.8777 23.0996 42.6805 23.0996 42.475C23.0996 42.2695 23.1813 42.0723 23.3266 41.927C23.4719 41.7817 23.6691 41.7 23.8746 41.7H33.9837C33.9616 41.9577 33.9502 42.2163 33.9496 42.475ZM42.4746 49.45C44.3245 49.45 46.0986 48.7151 47.4067 47.4071C48.7147 46.099 49.4496 44.3249 49.4496 42.475C49.4496 40.6251 48.7147 38.851 47.4067 37.5429C46.0986 36.2349 44.3245 35.5 42.4746 35.5C40.6247 35.5 38.8506 36.2349 37.5425 37.5429C36.2345 38.851 35.4996 40.6251 35.4996 42.475C35.4996 44.3249 36.2345 46.099 37.5425 47.4071C38.8506 48.7151 40.6247 49.45 42.4746 49.45ZM44.2509 45.3487L42.4746 43.5709L40.6983 45.3487C40.5528 45.4942 40.3554 45.576 40.1496 45.576C39.9438 45.576 39.7464 45.4942 39.6009 45.3487C39.4554 45.2032 39.3736 45.0058 39.3736 44.8C39.3736 44.5942 39.4554 44.3968 39.6009 44.2513L41.3788 42.475L39.6009 40.6987C39.4554 40.5532 39.3736 40.3558 39.3736 40.15C39.3736 39.9442 39.4554 39.7468 39.6009 39.6013C39.7464 39.4558 39.9438 39.374 40.1496 39.374C40.3554 39.374 40.5528 39.4558 40.6983 39.6013L42.4746 41.3792L44.2509 39.6013C44.323 39.5292 44.4085 39.4721 44.5027 39.4331C44.5968 39.3941 44.6977 39.374 44.7996 39.374C44.9015 39.374 45.0024 39.3941 45.0966 39.4331C45.1907 39.4721 45.2763 39.5292 45.3483 39.6013C45.4204 39.6734 45.4775 39.7589 45.5165 39.853C45.5555 39.9472 45.5756 40.0481 45.5756 40.15C45.5756 40.2519 45.5555 40.3528 45.5165 40.447C45.4775 40.5411 45.4204 40.6266 45.3483 40.6987L43.5705 42.475L45.3483 44.2513C45.4204 44.3234 45.4775 44.4089 45.5165 44.503C45.5555 44.5972 45.5756 44.6981 45.5756 44.8C45.5756 44.9019 45.5555 45.0028 45.5165 45.097C45.4775 45.1911 45.4204 45.2766 45.3483 45.3487C45.2763 45.4208 45.1907 45.4779 45.0966 45.5169C45.0024 45.5559 44.9015 45.576 44.7996 45.576C44.6977 45.576 44.5968 45.5559 44.5027 45.5169C44.4085 45.4779 44.323 45.4208 44.2509 45.3487Z" fill="#FF7474"/>
</svg>
