<svg width="25" height="25" viewBox="0 0 25 25" fill="none" xmlns="http://www.w3.org/2000/svg">
<path d="M8.33333 12.5C9.4384 12.5 10.4982 12.061 11.2796 11.2796C12.061 10.4982 12.5 9.43842 12.5 8.33335C12.5 7.22828 12.061 6.16848 11.2796 5.38708C10.4982 4.60567 9.4384 4.16669 8.33333 4.16669C7.22826 4.16669 6.16846 4.60567 5.38706 5.38708C4.60565 6.16848 4.16667 7.22828 4.16667 8.33335C4.16667 9.43842 4.60565 10.4982 5.38706 11.2796C6.16846 12.061 7.22826 12.5 8.33333 12.5ZM17.7083 12.5C18.5371 12.5 19.332 12.1708 19.918 11.5847C20.5041 10.9987 20.8333 10.2038 20.8333 9.37502C20.8333 8.54622 20.5041 7.75136 19.918 7.16531C19.332 6.57926 18.5371 6.25002 17.7083 6.25002C16.8795 6.25002 16.0847 6.57926 15.4986 7.16531C14.9126 7.75136 14.5833 8.54622 14.5833 9.37502C14.5833 10.2038 14.9126 10.9987 15.4986 11.5847C16.0847 12.1708 16.8795 12.5 17.7083 12.5ZM3.51563 14.0625C2.99762 14.0625 2.50084 14.2683 2.13456 14.6346C1.76828 15.0009 1.5625 15.4976 1.5625 16.0156V16.6667C1.5625 16.6667 1.5625 21.3542 8.33333 21.3542C15.1042 21.3542 15.1042 16.6667 15.1042 16.6667V16.0156C15.1042 15.4976 14.8984 15.0009 14.5321 14.6346C14.1658 14.2683 13.669 14.0625 13.151 14.0625H3.51563ZM14.9344 19.838C15.651 20.1287 16.5589 20.3125 17.7078 20.3125C23.1766 20.3125 23.1766 16.1459 23.1766 16.1459V16.0156C23.1766 15.4977 22.9709 15.001 22.6047 14.6348C22.2385 14.2685 21.7419 14.0627 21.224 14.0625H15.4203C15.8886 14.6054 16.1457 15.2987 16.1448 16.0156V16.6901L16.1443 16.7198L16.1411 16.7979C16.1384 16.858 16.1323 16.9327 16.1229 17.0219C16.0968 17.2545 16.055 17.485 15.9979 17.712C15.8004 18.4889 15.4377 19.2141 14.9344 19.838Z" fill="#ADB5BD"/>
</svg>
