<svg width="25" height="25" viewBox="0 0 25 25" fill="none" xmlns="http://www.w3.org/2000/svg">
<g clip-path="url(#clip0_140_227)">
<path fill-rule="evenodd" clip-rule="evenodd" d="M9.01685 0.492868C6.6008 1.19666 4.45296 2.61231 2.85354 4.55512C1.25412 6.49793 0.277395 8.87769 0.0507812 11.3839H5.76507C6.09816 7.5701 7.20393 3.86394 9.01507 0.491083L9.01685 0.492868ZM5.76507 13.6161H0.0507812C0.276923 16.1224 1.25323 18.5024 2.85234 20.4456C4.45144 22.3887 6.59908 23.8047 9.01507 24.5089C7.20393 21.1361 6.09816 17.4299 5.76507 13.6161ZM11.8794 24.9857C9.71432 21.552 8.38694 17.6573 8.00435 13.6161H16.9954C16.6128 17.6573 15.2855 21.552 13.1204 24.9857C12.707 25.0063 12.2928 25.0063 11.8794 24.9857ZM15.9865 24.5072C18.4022 23.8031 20.5497 22.3873 22.1488 20.4445C23.7478 18.5017 24.7243 16.1221 24.9508 13.6161H19.2365C18.9034 17.4299 17.7976 21.1361 15.9865 24.5089V24.5072ZM19.2365 11.3839H24.9508C24.7246 8.8776 23.7483 6.4976 22.1492 4.55447C20.5501 2.61134 18.4025 1.19529 15.9865 0.491083C17.7976 3.86394 18.9034 7.5701 19.2365 11.3839ZM11.8794 0.0142968C12.2934 -0.00631183 12.7082 -0.00631183 13.1222 0.0142968C15.2866 3.44819 16.6134 7.34286 16.9954 11.3839H8.00614C8.39364 7.31787 9.724 3.41965 11.8794 0.0142968Z" fill="#ADB5BD"/>
</g>
<defs>
<clipPath id="clip0_140_227">
<rect width="25" height="25" fill="white"/>
</clipPath>
</defs>
</svg>
