<svg width="25" height="25" viewBox="0 0 25 25" fill="none" xmlns="http://www.w3.org/2000/svg">
<g clip-path="url(#clip0_140_222)">
<path d="M12.5 0L15.625 4.6875H14.0625V7.8125H10.9375V4.6875H9.375L12.5 0ZM23.4375 10.9375V23.4375H1.5625V10.9375H23.4375ZM25 9.375H0V25H25V9.375Z" fill="#ADB5BD"/>
<path d="M12.5 12.5C13.1156 12.5 13.7251 12.6212 14.2938 12.8568C14.8625 13.0924 15.3793 13.4377 15.8146 13.8729C16.2498 14.3082 16.5951 14.825 16.8307 15.3937C17.0663 15.9624 17.1875 16.5719 17.1875 17.1875C17.1875 17.8031 17.0663 18.4126 16.8307 18.9813C16.5951 19.55 16.2498 20.0668 15.8146 20.5021C15.3793 20.9373 14.8625 21.2826 14.2938 21.5182C13.7251 21.7538 13.1156 21.875 12.5 21.875H20.3125V20.3125H21.875V14.0625H20.3125V12.5H12.5ZM7.8125 17.1875C7.8125 15.9443 8.30636 14.752 9.18544 13.8729C10.0645 12.9939 11.2568 12.5 12.5 12.5H4.6875V14.0625H3.125V20.3125H4.6875V21.875H12.5C11.2568 21.875 10.0645 21.3811 9.18544 20.5021C8.30636 19.623 7.8125 18.4307 7.8125 17.1875Z" fill="#ADB5BD"/>
</g>
<defs>
<clipPath id="clip0_140_222">
<rect width="25" height="25" fill="white"/>
</clipPath>
</defs>
</svg>
